<svg xmlns="http://www.w3.org/2000/svg" width="68" height="12" version="1.2"><path fill="#efb823" d="M5.9 10 3 11.6c-.4.2-.8-.2-.8-.6l.6-3.3q0-.3-.2-.5L.3 4.9C0 4.6.1 4.1.6 4l3.2-.5q.3 0 .4-.3l1.4-3c.2-.4.8-.4 1 0l1.4 3q.1.3.4.3l3.2.5c.5.1.6.6.3.9L9.6 7.2q-.2.2-.2.5L10 11c.1.4-.4.8-.8.6L6.3 10q-.2-.1-.4 0zm13.9 0-2.9 1.6c-.4.2-.8-.2-.7-.6l.5-3.3q.1-.3-.1-.5l-2.4-2.3c-.3-.3-.1-.8.3-.9l3.3-.5q.2 0 .3-.3l1.5-3c.2-.4.7-.4.9 0l1.5 3q.1.3.3.3l3.3.5c.4.1.6.6.3.9l-2.4 2.3q-.2.2-.1.5l.5 3.3c.1.4-.3.8-.7.6L20.3 10h-.5zm13.9 0-2.9 1.6c-.3.2-.8-.2-.7-.6l.6-3.3q0-.3-.2-.5l-2.3-2.3c-.3-.3-.2-.8.2-.9l3.3-.5q.3 0 .4-.3l1.4-3c.2-.4.8-.4.9 0l1.5 3q.1.3.4.3l3.2.5c.4.1.6.6.3.9l-2.3 2.3q-.2.2-.2.5l.6 3.3c0 .4-.4.8-.8.6L34.2 10h-.5zm27.9 0-2.9 1.6c-.3.2-.8-.2-.7-.6l.5-3.3q.1-.3-.1-.5L56 4.9c-.3-.3-.1-.8.3-.9l3.3-.5q.2 0 .4-.3l1.4-3c.2-.4.7-.4.9 0l1.5 3q.1.3.4.3l3.2.5c.4.1.6.6.3.9l-2.4 2.3-.1.5.5 3.3c.1.4-.3.8-.7.6L62.1 10h-.5zm-13.9 0-2.9 1.6c-.4.2-.8-.2-.8-.6l.6-3.3-.1-.5-2.4-2.3c-.3-.3-.1-.8.3-.9l3.2-.5q.3 0 .4-.3l1.5-3c.2-.4.7-.4.9 0l1.4 3q.2.3.4.3l3.3.5c.4.1.5.6.2.9l-2.3 2.3q-.2.2-.2.5l.6 3.3c.1.4-.4.8-.7.6L48.2 10h-.5z"/></svg>