<svg xmlns="http://www.w3.org/2000/svg" width="237" height="30" version="1.2"><defs><linearGradient id="P" gradientUnits="userSpaceOnUse"/><linearGradient id="g1" x1="77" x2="133.6" y1="-1.9" y2="-1.9" href="#P"><stop stop-color="#3bbb6b"/><stop offset="1" stop-color="#050f0f"/></linearGradient></defs><path d="m28 .5-5.9 28.8h-5.6L14.1 13l-2.4 16.3H6.1L.3.5h6.1l2.5 16.7L11.3.5h5.6l2.5 16.6L21.9.5zM44.3 29.3H30V.5h14.3v4.8H36v7h7.2V17H36v7.5h8.3z" class="s0"/><path fill-rule="evenodd" d="M63.1 18.3v11h-6V.5h8.6c5 0 8.6 3.1 8.6 7.8v2.2c0 2.9-1.4 5.3-3.7 6.6l4.9 12.2h-6.1l-3.7-11zm0-13v8.2h2.4c1.6 0 2.7-.9 2.7-2.5V7.7c0-1.5-1.1-2.4-2.7-2.4z" class="s0"/><path d="M136 29.3V.5h4.9l5.7 14.8L152.4.5h4.8v28.8h-5.4V15.1l-3.7 9.4h-3l-3.7-9.4v14.2zM159.6 29.3V.5h4.8l5.8 14.8L176 .5h4.8v28.8h-5.4V15.1l-3.7 9.4h-3l-3.7-9.4v14.2zM197.4 29.3h-14.2V.5h14.2v4.8h-8.2v7h7.2V17h-7.2v7.5h8.2zM199.9 29.3V.5h5l6.5 14.5V.5h5.8v28.8h-5.1l-6.5-14.5v14.5z" class="s0"/><path fill-rule="evenodd" d="M219.6.5h8.4c5 0 8.7 3.1 8.7 7.8v13.2c0 4.7-3.7 7.8-8.7 7.8h-8.4zm6 4.8v19.2h2.3c1.6 0 2.8-.9 2.8-2.4V7.7c0-1.5-1.2-2.4-2.8-2.4z" class="s0"/><path fill="url(#g1)" fill-rule="evenodd" d="M83 17.3v5.2c0 1.6 1 2.4 2.6 2.4 1.4 0 2.6-.8 2.6-2.4v-2.3h6V22c0 4.6-3.6 7.7-8.6 7.7S77 26.6 77 22V7.8C77 3.2 80.6.1 85.6.1s8.6 3.1 8.6 7.7v9.5zm0-4.8h5.3V7.3c0-1.5-1.2-2.5-2.6-2.5-1.6 0-2.7 1-2.7 2.5zm50.7-4.7v14.1c0 4.7-3.6 7.8-8.6 7.8s-8.6-3.1-8.6-7.8V0h8.5c5.1 0 8.7 3.1 8.7 7.8zM125 29.7h.1zm2.6-22.4c0-1.6-1-2.5-2.6-2.5h-2.6v17.7c0 1.5 1.1 2.4 2.6 2.4 1.6 0 2.6-.9 2.6-2.4zM125 24.9h.1-.1zM114 7.8v1.8h-6V7.3c0-1.5-1.2-2.5-2.6-2.5-1.6 0-2.7 1-2.7 2.5v15.2c0 1.6 1.1 2.4 2.7 2.4 1.4 0 2.6-.8 2.6-2.4v-2.3h6V22c0 4.6-3.7 7.7-8.6 7.7-5.1 0-8.7-3.1-8.7-7.7V7.8c0-4.6 3.6-7.7 8.7-7.7 4.9 0 8.6 3.1 8.6 7.7z"/></svg>