<svg xmlns="http://www.w3.org/2000/svg" viewBox="0 0 16 16" width="16" height="16"><path d="M11.23 0H4.77A4.78 4.78 0 0 0 0 4.77v6.46A4.78 4.78 0 0 0 4.77 16h6.46A4.78 4.78 0 0 0 16 11.23V4.77A4.78 4.78 0 0 0 11.23 0Zm3.16 11.23a3.15 3.15 0 0 1-3.16 3.16H4.77a3.15 3.15 0 0 1-3.16-3.16V4.77a3.15 3.15 0 0 1 3.16-3.16h6.46a3.15 3.15 0 0 1 3.16 3.16v6.46Z" class="cls-1"/><path d="M8 3.86A4.14 4.14 0 1 0 12.14 8 4.15 4.15 0 0 0 8 3.86Zm0 6.67A2.53 2.53 0 1 1 10.53 8 2.53 2.53 0 0 1 8 10.53Z" class="cls-1"/><circle cx="12.15" cy="3.89" r=".99" class="cls-2"/></svg>
