<svg xmlns="http://www.w3.org/2000/svg" viewBox="0 0 19.49 13"><path d="M15.72 0a11.63 11.63 0 0 0-3.11.33 3.78 3.78 0 0 0-1.88 1.25c-.56.73-1.14 1.64-2.39 5.42-.86 2.5-1.58 5.14-1.84 6a6.58 6.58 0 0 0 3-.75 6.36 6.36 0 0 0 2.85-3c.05-.07.07-.21.19-.21a5.31 5.31 0 0 0 3.57-1.64 5.47 5.47 0 0 0 1.29-2.52 8 8 0 0 1-3.6 0 8.53 8.53 0 0 0 3.64-1.6 5.94 5.94 0 0 0 2-3.28ZM5.64 12.74l.26-.89 1-3.46a1.87 1.87 0 0 1-1 0 1.94 1.94 0 0 1 .37-3.78 2 2 0 0 1 1.66.62.21.21 0 0 0 0 .06 13.47 13.47 0 0 1 2-4.19A6.57 6.57 0 0 0 6.49 0h-.66a6.57 6.57 0 0 0-5.5 4.46 6.49 6.49 0 0 0 4.25 8.24 5.68 5.68 0 0 0 1 .22Z"/></svg>